# This file uses centimeters as units for non-parametric coordinates.

mtllib model.mtl
g default
v 1.079395 -1.993941 -0.711642
v 0.355053 -1.993941 -1.237907
v -0.540282 -1.993941 -1.237907
v -1.264623 -1.993941 -0.711642
v -1.541297 -1.993941 0.139872
v -1.264623 -1.993941 0.991387
v -0.540282 -1.993941 1.517652
v 0.355054 -1.993941 1.517652
v 1.079395 -1.993941 0.991387
v 1.356069 -1.993941 0.139872
v 1.803736 -0.761617 -1.237907
v 0.631727 -0.761617 -2.089421
v -0.816956 -0.761617 -2.089421
v -1.988965 -0.761617 -1.237907
v -2.436632 -0.761617 0.139873
v -1.988964 -0.761617 1.517652
v -0.816955 -0.761617 2.369166
v 0.631727 -0.761617 2.369166
v 1.803736 -0.761617 1.517651
v 2.251404 -0.761617 0.139872
v 1.803736 0.761617 -1.237907
v 0.631727 0.761617 -2.089421
v -0.816956 0.761617 -2.089421
v -1.988965 0.761617 -1.237907
v -2.436632 0.761617 0.139873
v -1.988964 0.761617 1.517652
v -0.816955 0.761617 2.369166
v 0.631727 0.761617 2.369166
v 1.803736 0.761617 1.517651
v 2.251404 0.761617 0.139872
v 1.079395 1.993941 -0.711642
v 0.355053 1.993941 -1.237907
v -0.540282 1.993941 -1.237907
v -1.264623 1.993941 -0.711642
v -1.541297 1.993941 0.139872
v -1.264623 1.993941 0.991387
v -0.540282 1.993941 1.517652
v 0.355054 1.993941 1.517652
v 1.079395 1.993941 0.991387
v 1.356069 1.993941 0.139872
v -0.092614 -2.464646 0.139872
v -0.092614 2.464646 0.139872
vt 0.000000 0.200000
vt 0.100000 0.200000
vt 0.200000 0.200000
vt 0.300000 0.200000
vt 0.400000 0.200000
vt 0.500000 0.200000
vt 0.600000 0.200000
vt 0.700000 0.200000
vt 0.800000 0.200000
vt 0.900000 0.200000
vt 1.000000 0.200000
vt 0.000000 0.400000
vt 0.100000 0.400000
vt 0.200000 0.400000
vt 0.300000 0.400000
vt 0.400000 0.400000
vt 0.500000 0.400000
vt 0.600000 0.400000
vt 0.700000 0.400000
vt 0.800000 0.400000
vt 0.900000 0.400000
vt 1.000000 0.400000
vt 0.000000 0.600000
vt 0.100000 0.600000
vt 0.200000 0.600000
vt 0.300000 0.600000
vt 0.400000 0.600000
vt 0.500000 0.600000
vt 0.600000 0.600000
vt 0.700000 0.600000
vt 0.800000 0.600000
vt 0.900000 0.600000
vt 1.000000 0.600000
vt 0.000000 0.800000
vt 0.100000 0.800000
vt 0.200000 0.800000
vt 0.300000 0.800000
vt 0.400000 0.800000
vt 0.500000 0.800000
vt 0.600000 0.800000
vt 0.700000 0.800000
vt 0.800000 0.800000
vt 0.900000 0.800000
vt 1.000000 0.800000
vt 0.050000 0.000000
vt 0.150000 0.000000
vt 0.250000 0.000000
vt 0.350000 0.000000
vt 0.450000 0.000000
vt 0.550000 0.000000
vt 0.650000 0.000000
vt 0.750000 0.000000
vt 0.850000 0.000000
vt 0.950000 0.000000
vt 0.050000 1.000000
vt 0.150000 1.000000
vt 0.250000 1.000000
vt 0.350000 1.000000
vt 0.450000 1.000000
vt 0.550000 1.000000
vt 0.650000 1.000000
vt 0.750000 1.000000
vt 0.850000 1.000000
vt 0.950000 1.000000
vn 0.483572 -0.568473 -0.665580
vn 0.483572 -0.568473 -0.665580
vn 0.483572 -0.568473 -0.665580
vn 0.483572 -0.568473 -0.665580
vn -0.000000 -0.568473 -0.822702
vn -0.000000 -0.568473 -0.822702
vn -0.000000 -0.568473 -0.822702
vn 0.000000 -0.568473 -0.822702
vn -0.483572 -0.568473 -0.665580
vn -0.483572 -0.568473 -0.665580
vn -0.483572 -0.568473 -0.665580
vn -0.483572 -0.568473 -0.665580
vn -0.782436 -0.568473 -0.254229
vn -0.782436 -0.568473 -0.254229
vn -0.782436 -0.568473 -0.254229
vn -0.782436 -0.568473 -0.254229
vn -0.782436 -0.568473 0.254229
vn -0.782436 -0.568473 0.254229
vn -0.782436 -0.568473 0.254229
vn -0.782436 -0.568473 0.254229
vn -0.483572 -0.568473 0.665580
vn -0.483572 -0.568473 0.665580
vn -0.483572 -0.568473 0.665580
vn -0.483572 -0.568473 0.665580
vn 0.000000 -0.568473 0.822702
vn 0.000000 -0.568473 0.822702
vn 0.000000 -0.568473 0.822702
vn 0.000000 -0.568473 0.822702
vn 0.483572 -0.568473 0.665580
vn 0.483572 -0.568473 0.665580
vn 0.483572 -0.568473 0.665580
vn 0.483572 -0.568473 0.665580
vn 0.782436 -0.568473 0.254229
vn 0.782436 -0.568473 0.254229
vn 0.782436 -0.568473 0.254229
vn 0.782436 -0.568473 0.254229
vn 0.782436 -0.568473 -0.254229
vn 0.782436 -0.568473 -0.254229
vn 0.782436 -0.568473 -0.254229
vn 0.782436 -0.568473 -0.254229
vn 0.587785 0.000000 -0.809017
vn 0.587785 0.000000 -0.809017
vn 0.587785 0.000000 -0.809017
vn 0.587785 0.000000 -0.809017
vn 0.000000 0.000000 -1.000000
vn -0.000000 0.000000 -1.000000
vn -0.000000 0.000000 -1.000000
vn -0.000000 0.000000 -1.000000
vn -0.587785 0.000000 -0.809017
vn -0.587785 0.000000 -0.809017
vn -0.587785 0.000000 -0.809017
vn -0.587785 0.000000 -0.809017
vn -0.951057 0.000000 -0.309017
vn -0.951057 0.000000 -0.309017
vn -0.951057 0.000000 -0.309017
vn -0.951057 0.000000 -0.309017
vn -0.951057 0.000000 0.309017
vn -0.951057 0.000000 0.309017
vn -0.951057 0.000000 0.309017
vn -0.951057 0.000000 0.309017
vn -0.587785 0.000000 0.809017
vn -0.587785 0.000000 0.809017
vn -0.587785 0.000000 0.809017
vn -0.587785 0.000000 0.809017
vn 0.000000 0.000000 1.000000
vn 0.000000 0.000000 1.000000
vn 0.000000 0.000000 1.000000
vn 0.000000 0.000000 1.000000
vn 0.587785 0.000000 0.809017
vn 0.587785 0.000000 0.809017
vn 0.587785 0.000000 0.809017
vn 0.587785 0.000000 0.809017
vn 0.951057 0.000000 0.309017
vn 0.951057 0.000000 0.309017
vn 0.951057 0.000000 0.309017
vn 0.951057 0.000000 0.309017
vn 0.951057 0.000000 -0.309017
vn 0.951057 0.000000 -0.309017
vn 0.951057 0.000000 -0.309017
vn 0.951057 0.000000 -0.309017
vn 0.483572 0.568473 -0.665580
vn 0.483572 0.568473 -0.665580
vn 0.483572 0.568473 -0.665580
vn 0.483572 0.568473 -0.665580
vn 0.000000 0.568473 -0.822702
vn -0.000000 0.568473 -0.822702
vn -0.000000 0.568473 -0.822702
vn -0.000000 0.568473 -0.822702
vn -0.483572 0.568473 -0.665580
vn -0.483572 0.568473 -0.665580
vn -0.483572 0.568473 -0.665580
vn -0.483572 0.568473 -0.665580
vn -0.782436 0.568473 -0.254229
vn -0.782436 0.568473 -0.254229
vn -0.782436 0.568473 -0.254229
vn -0.782436 0.568473 -0.254229
vn -0.782436 0.568473 0.254229
vn -0.782436 0.568473 0.254229
vn -0.782436 0.568473 0.254229
vn -0.782436 0.568473 0.254229
vn -0.483572 0.568473 0.665580
vn -0.483572 0.568473 0.665580
vn -0.483572 0.568473 0.665580
vn -0.483572 0.568473 0.665580
vn 0.000000 0.568473 0.822702
vn 0.000000 0.568473 0.822702
vn 0.000000 0.568473 0.822702
vn 0.000000 0.568473 0.822702
vn 0.483572 0.568473 0.665580
vn 0.483572 0.568473 0.665580
vn 0.483572 0.568473 0.665580
vn 0.483572 0.568473 0.665580
vn 0.782436 0.568473 0.254229
vn 0.782436 0.568473 0.254229
vn 0.782436 0.568473 0.254229
vn 0.782436 0.568473 0.254229
vn 0.782436 0.568473 -0.254229
vn 0.782436 0.568473 -0.254229
vn 0.782436 0.568473 -0.254229
vn 0.782436 0.568473 -0.254229
vn 0.190027 -0.946299 -0.261551
vn 0.190027 -0.946299 -0.261551
vn 0.190027 -0.946299 -0.261551
vn 0.000000 -0.946299 -0.323294
vn 0.000000 -0.946299 -0.323294
vn 0.000000 -0.946299 -0.323294
vn -0.190028 -0.946299 -0.261550
vn -0.190028 -0.946299 -0.261550
vn -0.190028 -0.946299 -0.261550
vn -0.307471 -0.946299 -0.099903
vn -0.307471 -0.946299 -0.099903
vn -0.307471 -0.946299 -0.099903
vn -0.307471 -0.946299 0.099903
vn -0.307471 -0.946299 0.099903
vn -0.307471 -0.946299 0.099903
vn -0.190028 -0.946299 0.261551
vn -0.190028 -0.946299 0.261551
vn -0.190027 -0.946299 0.261551
vn 0.000000 -0.946299 0.323294
vn 0.000000 -0.946299 0.323294
vn 0.000000 -0.946299 0.323294
vn 0.190028 -0.946299 0.261550
vn 0.190028 -0.946299 0.261550
vn 0.190028 -0.946299 0.261550
vn 0.307471 -0.946299 0.099904
vn 0.307471 -0.946299 0.099904
vn 0.307471 -0.946298 0.099904
vn 0.307471 -0.946299 -0.099903
vn 0.307471 -0.946299 -0.099903
vn 0.307471 -0.946299 -0.099903
vn 0.190027 0.946298 -0.261551
vn 0.190027 0.946299 -0.261551
vn 0.190027 0.946298 -0.261551
vn 0.000000 0.946299 -0.323294
vn 0.000000 0.946299 -0.323294
vn 0.000000 0.946299 -0.323294
vn -0.190027 0.946299 -0.261550
vn -0.190028 0.946299 -0.261550
vn -0.190028 0.946299 -0.261550
vn -0.307471 0.946299 -0.099903
vn -0.307471 0.946299 -0.099903
vn -0.307471 0.946299 -0.099903
vn -0.307471 0.946299 0.099903
vn -0.307471 0.946299 0.099903
vn -0.307471 0.946299 0.099903
vn -0.190027 0.946299 0.261551
vn -0.190027 0.946299 0.261551
vn -0.190027 0.946298 0.261551
vn 0.000000 0.946299 0.323294
vn 0.000000 0.946299 0.323294
vn 0.000000 0.946299 0.323294
vn 0.190028 0.946299 0.261550
vn 0.190028 0.946299 0.261550
vn 0.190028 0.946299 0.261550
vn 0.307471 0.946299 0.099904
vn 0.307471 0.946299 0.099904
vn 0.307471 0.946298 0.099904
vn 0.307471 0.946299 -0.099903
vn 0.307471 0.946299 -0.099903
vn 0.307471 0.946299 -0.099903
s 1
g pSphere1
usemtl initialShadingGroup
f 11/12/1 1/1/2 12/13/3
f 12/13/3 1/1/2 2/2/4
s 2
f 12/13/5 2/2/6 13/14/7
f 13/14/7 2/2/6 3/3/8
s 3
f 13/14/9 3/3/10 14/15/11
f 14/15/11 3/3/10 4/4/12
s 4
f 14/15/13 4/4/14 15/16/15
f 15/16/15 4/4/14 5/5/16
s 5
f 15/16/17 5/5/18 16/17/19
f 16/17/19 5/5/18 6/6/20
s 6
f 16/17/21 6/6/22 17/18/23
f 17/18/23 6/6/22 7/7/24
s 7
f 17/18/25 7/7/26 18/19/27
f 18/19/27 7/7/26 8/8/28
s 8
f 18/19/29 8/8/30 19/20/31
f 19/20/31 8/8/30 9/9/32
s 9
f 19/20/33 9/9/34 20/21/35
f 20/21/35 9/9/34 10/10/36
s 10
f 20/21/37 10/10/38 11/22/39
f 11/22/39 10/10/38 1/11/40
s 11
f 21/23/41 11/12/42 22/24/43
f 22/24/43 11/12/42 12/13/44
s 12
f 22/24/45 12/13/46 23/25/47
f 23/25/47 12/13/46 13/14/48
s 13
f 23/25/49 13/14/50 24/26/51
f 24/26/51 13/14/50 14/15/52
s 14
f 24/26/53 14/15/54 25/27/55
f 25/27/55 14/15/54 15/16/56
s 15
f 25/27/57 15/16/58 26/28/59
f 26/28/59 15/16/58 16/17/60
s 16
f 26/28/61 16/17/62 27/29/63
f 27/29/63 16/17/62 17/18/64
s 17
f 27/29/65 17/18/66 28/30/67
f 28/30/67 17/18/66 18/19/68
s 18
f 28/30/69 18/19/70 29/31/71
f 29/31/71 18/19/70 19/20/72
s 19
f 29/31/73 19/20/74 30/32/75
f 30/32/75 19/20/74 20/21/76
s 20
f 30/32/77 20/21/78 21/33/79
f 21/33/79 20/21/78 11/22/80
s 21
f 31/34/81 21/23/82 32/35/83
f 32/35/83 21/23/82 22/24/84
s 22
f 32/35/85 22/24/86 33/36/87
f 33/36/87 22/24/86 23/25/88
s 23
f 33/36/89 23/25/90 34/37/91
f 34/37/91 23/25/90 24/26/92
s 24
f 34/37/93 24/26/94 35/38/95
f 35/38/95 24/26/94 25/27/96
s 25
f 35/38/97 25/27/98 36/39/99
f 36/39/99 25/27/98 26/28/100
s 26
f 36/39/101 26/28/102 37/40/103
f 37/40/103 26/28/102 27/29/104
s 27
f 37/40/105 27/29/106 38/41/107
f 38/41/107 27/29/106 28/30/108
s 28
f 38/41/109 28/30/110 39/42/111
f 39/42/111 28/30/110 29/31/112
s 29
f 39/42/113 29/31/114 40/43/115
f 40/43/115 29/31/114 30/32/116
s 30
f 40/43/117 30/32/118 31/44/119
f 31/44/119 30/32/118 21/33/120
s off
f 2/2/121 1/1/122 41/45/123
f 3/3/124 2/2/125 41/46/126
f 4/4/127 3/3/128 41/47/129
f 5/5/130 4/4/131 41/48/132
f 6/6/133 5/5/134 41/49/135
f 7/7/136 6/6/137 41/50/138
f 8/8/139 7/7/140 41/51/141
f 9/9/142 8/8/143 41/52/144
f 10/10/145 9/9/146 41/53/147
f 1/11/148 10/10/149 41/54/150
f 31/34/151 32/35/152 42/55/153
f 32/35/154 33/36/155 42/56/156
f 33/36/157 34/37/158 42/57/159
f 34/37/160 35/38/161 42/58/162
f 35/38/163 36/39/164 42/59/165
f 36/39/166 37/40/167 42/60/168
f 37/40/169 38/41/170 42/61/171
f 38/41/172 39/42/173 42/62/174
f 39/42/175 40/43/176 42/63/177
f 40/43/178 31/44/179 42/64/180
g default
v 1.079395 -1.993941 -0.711642
v 0.355053 -1.993941 -1.237907
v -0.540282 -1.993941 -1.237907
v -1.264623 -1.993941 -0.711642
v -1.541297 -1.993941 0.139872
v -1.264623 -1.993941 0.991387
v -0.540282 -1.993941 1.517652
v 0.355054 -1.993941 1.517652
v 1.079395 -1.993941 0.991387
v 1.356069 -1.993941 0.139872
v 1.803736 -0.761617 -1.237907
v 0.631727 -0.761617 -2.089421
v -0.816956 -0.761617 -2.089421
v -1.988965 -0.761617 -1.237907
v -2.436632 -0.761617 0.139873
v -1.988964 -0.761617 1.517652
v -0.816955 -0.761617 2.369166
v 0.631727 -0.761617 2.369166
v 1.803736 -0.761617 1.517651
v 2.251404 -0.761617 0.139872
v 1.803736 0.761617 -1.237907
v 0.631727 0.761617 -2.089421
v -0.816956 0.761617 -2.089421
v -1.988965 0.761617 -1.237907
v -2.436632 0.761617 0.139873
v -1.988964 0.761617 1.517652
v -0.816955 0.761617 2.369166
v 0.631727 0.761617 2.369166
v 1.803736 0.761617 1.517651
v 2.251404 0.761617 0.139872
v 1.079395 1.993941 -0.711642
v 0.355053 1.993941 -1.237907
v -0.540282 1.993941 -1.237907
v -1.264623 1.993941 -0.711642
v -1.541297 1.993941 0.139872
v -1.264623 1.993941 0.991387
v -0.540282 1.993941 1.517652
v 0.355054 1.993941 1.517652
v 1.079395 1.993941 0.991387
v 1.356069 1.993941 0.139872
v -0.092614 -2.464646 0.139872
v -0.092614 2.464646 0.139872
vt 0.000000 0.200000
vt 0.100000 0.200000
vt 0.200000 0.200000
vt 0.300000 0.200000
vt 0.400000 0.200000
vt 0.500000 0.200000
vt 0.600000 0.200000
vt 0.700000 0.200000
vt 0.800000 0.200000
vt 0.900000 0.200000
vt 1.000000 0.200000
vt 0.000000 0.400000
vt 0.100000 0.400000
vt 0.200000 0.400000
vt 0.300000 0.400000
vt 0.400000 0.400000
vt 0.500000 0.400000
vt 0.600000 0.400000
vt 0.700000 0.400000
vt 0.800000 0.400000
vt 0.900000 0.400000
vt 1.000000 0.400000
vt 0.000000 0.600000
vt 0.100000 0.600000
vt 0.200000 0.600000
vt 0.300000 0.600000
vt 0.400000 0.600000
vt 0.500000 0.600000
vt 0.600000 0.600000
vt 0.700000 0.600000
vt 0.800000 0.600000
vt 0.900000 0.600000
vt 1.000000 0.600000
vt 0.000000 0.800000
vt 0.100000 0.800000
vt 0.200000 0.800000
vt 0.300000 0.800000
vt 0.400000 0.800000
vt 0.500000 0.800000
vt 0.600000 0.800000
vt 0.700000 0.800000
vt 0.800000 0.800000
vt 0.900000 0.800000
vt 1.000000 0.800000
vt 0.050000 0.000000
vt 0.150000 0.000000
vt 0.250000 0.000000
vt 0.350000 0.000000
vt 0.450000 0.000000
vt 0.550000 0.000000
vt 0.650000 0.000000
vt 0.750000 0.000000
vt 0.850000 0.000000
vt 0.950000 0.000000
vt 0.050000 1.000000
vt 0.150000 1.000000
vt 0.250000 1.000000
vt 0.350000 1.000000
vt 0.450000 1.000000
vt 0.550000 1.000000
vt 0.650000 1.000000
vt 0.750000 1.000000
vt 0.850000 1.000000
vt 0.950000 1.000000
vn 0.483572 -0.568473 -0.665580
vn 0.483572 -0.568473 -0.665580
vn 0.483572 -0.568473 -0.665580
vn 0.483572 -0.568473 -0.665580
vn -0.000000 -0.568473 -0.822702
vn -0.000000 -0.568473 -0.822702
vn -0.000000 -0.568473 -0.822702
vn 0.000000 -0.568473 -0.822702
vn -0.483572 -0.568473 -0.665580
vn -0.483572 -0.568473 -0.665580
vn -0.483572 -0.568473 -0.665580
vn -0.483572 -0.568473 -0.665580
vn -0.782436 -0.568473 -0.254229
vn -0.782436 -0.568473 -0.254229
vn -0.782436 -0.568473 -0.254229
vn -0.782436 -0.568473 -0.254229
vn -0.782436 -0.568473 0.254229
vn -0.782436 -0.568473 0.254229
vn -0.782436 -0.568473 0.254229
vn -0.782436 -0.568473 0.254229
vn -0.483572 -0.568473 0.665580
vn -0.483572 -0.568473 0.665580
vn -0.483572 -0.568473 0.665580
vn -0.483572 -0.568473 0.665580
vn 0.000000 -0.568473 0.822702
vn 0.000000 -0.568473 0.822702
vn 0.000000 -0.568473 0.822702
vn 0.000000 -0.568473 0.822702
vn 0.483572 -0.568473 0.665580
vn 0.483572 -0.568473 0.665580
vn 0.483572 -0.568473 0.665580
vn 0.483572 -0.568473 0.665580
vn 0.782436 -0.568473 0.254229
vn 0.782436 -0.568473 0.254229
vn 0.782436 -0.568473 0.254229
vn 0.782436 -0.568473 0.254229
vn 0.782436 -0.568473 -0.254229
vn 0.782436 -0.568473 -0.254229
vn 0.782436 -0.568473 -0.254229
vn 0.782436 -0.568473 -0.254229
vn 0.587785 0.000000 -0.809017
vn 0.587785 0.000000 -0.809017
vn 0.587785 0.000000 -0.809017
vn 0.587785 0.000000 -0.809017
vn 0.000000 0.000000 -1.000000
vn -0.000000 0.000000 -1.000000
vn -0.000000 0.000000 -1.000000
vn -0.000000 0.000000 -1.000000
vn -0.587785 0.000000 -0.809017
vn -0.587785 0.000000 -0.809017
vn -0.587785 0.000000 -0.809017
vn -0.587785 0.000000 -0.809017
vn -0.951057 0.000000 -0.309017
vn -0.951057 0.000000 -0.309017
vn -0.951057 0.000000 -0.309017
vn -0.951057 0.000000 -0.309017
vn -0.951057 0.000000 0.309017
vn -0.951057 0.000000 0.309017
vn -0.951057 0.000000 0.309017
vn -0.951057 0.000000 0.309017
vn -0.587785 0.000000 0.809017
vn -0.587785 0.000000 0.809017
vn -0.587785 0.000000 0.809017
vn -0.587785 0.000000 0.809017
vn 0.000000 0.000000 1.000000
vn 0.000000 0.000000 1.000000
vn 0.000000 0.000000 1.000000
vn 0.000000 0.000000 1.000000
vn 0.587785 0.000000 0.809017
vn 0.587785 0.000000 0.809017
vn 0.587785 0.000000 0.809017
vn 0.587785 0.000000 0.809017
vn 0.951057 0.000000 0.309017
vn 0.951057 0.000000 0.309017
vn 0.951057 0.000000 0.309017
vn 0.951057 0.000000 0.309017
vn 0.951057 0.000000 -0.309017
vn 0.951057 0.000000 -0.309017
vn 0.951057 0.000000 -0.309017
vn 0.951057 0.000000 -0.309017
vn 0.483572 0.568473 -0.665580
vn 0.483572 0.568473 -0.665580
vn 0.483572 0.568473 -0.665580
vn 0.483572 0.568473 -0.665580
vn 0.000000 0.568473 -0.822702
vn -0.000000 0.568473 -0.822702
vn -0.000000 0.568473 -0.822702
vn -0.000000 0.568473 -0.822702
vn -0.483572 0.568473 -0.665580
vn -0.483572 0.568473 -0.665580
vn -0.483572 0.568473 -0.665580
vn -0.483572 0.568473 -0.665580
vn -0.782436 0.568473 -0.254229
vn -0.782436 0.568473 -0.254229
vn -0.782436 0.568473 -0.254229
vn -0.782436 0.568473 -0.254229
vn -0.782436 0.568473 0.254229
vn -0.782436 0.568473 0.254229
vn -0.782436 0.568473 0.254229
vn -0.782436 0.568473 0.254229
vn -0.483572 0.568473 0.665580
vn -0.483572 0.568473 0.665580
vn -0.483572 0.568473 0.665580
vn -0.483572 0.568473 0.665580
vn 0.000000 0.568473 0.822702
vn 0.000000 0.568473 0.822702
vn 0.000000 0.568473 0.822702
vn 0.000000 0.568473 0.822702
vn 0.483572 0.568473 0.665580
vn 0.483572 0.568473 0.665580
vn 0.483572 0.568473 0.665580
vn 0.483572 0.568473 0.665580
vn 0.782436 0.568473 0.254229
vn 0.782436 0.568473 0.254229
vn 0.782436 0.568473 0.254229
vn 0.782436 0.568473 0.254229
vn 0.782436 0.568473 -0.254229
vn 0.782436 0.568473 -0.254229
vn 0.782436 0.568473 -0.254229
vn 0.782436 0.568473 -0.254229
vn 0.190027 -0.946299 -0.261551
vn 0.190027 -0.946299 -0.261551
vn 0.190027 -0.946299 -0.261551
vn 0.000000 -0.946299 -0.323294
vn 0.000000 -0.946299 -0.323294
vn 0.000000 -0.946299 -0.323294
vn -0.190028 -0.946299 -0.261550
vn -0.190028 -0.946299 -0.261550
vn -0.190028 -0.946299 -0.261550
vn -0.307471 -0.946299 -0.099903
vn -0.307471 -0.946299 -0.099903
vn -0.307471 -0.946299 -0.099903
vn -0.307471 -0.946299 0.099903
vn -0.307471 -0.946299 0.099903
vn -0.307471 -0.946299 0.099903
vn -0.190028 -0.946299 0.261551
vn -0.190028 -0.946299 0.261551
vn -0.190027 -0.946299 0.261551
vn 0.000000 -0.946299 0.323294
vn 0.000000 -0.946299 0.323294
vn 0.000000 -0.946299 0.323294
vn 0.190028 -0.946299 0.261550
vn 0.190028 -0.946299 0.261550
vn 0.190028 -0.946299 0.261550
vn 0.307471 -0.946299 0.099904
vn 0.307471 -0.946299 0.099904
vn 0.307471 -0.946298 0.099904
vn 0.307471 -0.946299 -0.099903
vn 0.307471 -0.946299 -0.099903
vn 0.307471 -0.946299 -0.099903
vn 0.190027 0.946298 -0.261551
vn 0.190027 0.946299 -0.261551
vn 0.190027 0.946298 -0.261551
vn 0.000000 0.946299 -0.323294
vn 0.000000 0.946299 -0.323294
vn 0.000000 0.946299 -0.323294
vn -0.190027 0.946299 -0.261550
vn -0.190028 0.946299 -0.261550
vn -0.190028 0.946299 -0.261550
vn -0.307471 0.946299 -0.099903
vn -0.307471 0.946299 -0.099903
vn -0.307471 0.946299 -0.099903
vn -0.307471 0.946299 0.099903
vn -0.307471 0.946299 0.099903
vn -0.307471 0.946299 0.099903
vn -0.190027 0.946299 0.261551
vn -0.190027 0.946299 0.261551
vn -0.190027 0.946298 0.261551
vn 0.000000 0.946299 0.323294
vn 0.000000 0.946299 0.323294
vn 0.000000 0.946299 0.323294
vn 0.190028 0.946299 0.261550
vn 0.190028 0.946299 0.261550
vn 0.190028 0.946299 0.261550
vn 0.307471 0.946299 0.099904
vn 0.307471 0.946299 0.099904
vn 0.307471 0.946298 0.099904
vn 0.307471 0.946299 -0.099903
vn 0.307471 0.946299 -0.099903
vn 0.307471 0.946299 -0.099903
s 1
g pSphere1
f 53/76/181 43/65/182 54/77/183
f 54/77/183 43/65/182 44/66/184
s 2
f 54/77/185 44/66/186 55/78/187
f 55/78/187 44/66/186 45/67/188
s 3
f 55/78/189 45/67/190 56/79/191
f 56/79/191 45/67/190 46/68/192
s 4
f 56/79/193 46/68/194 57/80/195
f 57/80/195 46/68/194 47/69/196
s 5
f 57/80/197 47/69/198 58/81/199
f 58/81/199 47/69/198 48/70/200
s 6
f 58/81/201 48/70/202 59/82/203
f 59/82/203 48/70/202 49/71/204
s 7
f 59/82/205 49/71/206 60/83/207
f 60/83/207 49/71/206 50/72/208
s 8
f 60/83/209 50/72/210 61/84/211
f 61/84/211 50/72/210 51/73/212
s 9
f 61/84/213 51/73/214 62/85/215
f 62/85/215 51/73/214 52/74/216
s 10
f 62/85/217 52/74/218 53/86/219
f 53/86/219 52/74/218 43/75/220
s 11
f 63/87/221 53/76/222 64/88/223
f 64/88/223 53/76/222 54/77/224
s 12
f 64/88/225 54/77/226 65/89/227
f 65/89/227 54/77/226 55/78/228
s 13
f 65/89/229 55/78/230 66/90/231
f 66/90/231 55/78/230 56/79/232
s 14
f 66/90/233 56/79/234 67/91/235
f 67/91/235 56/79/234 57/80/236
s 15
f 67/91/237 57/80/238 68/92/239
f 68/92/239 57/80/238 58/81/240
s 16
f 68/92/241 58/81/242 69/93/243
f 69/93/243 58/81/242 59/82/244
s 17
f 69/93/245 59/82/246 70/94/247
f 70/94/247 59/82/246 60/83/248
s 18
f 70/94/249 60/83/250 71/95/251
f 71/95/251 60/83/250 61/84/252
s 19
f 71/95/253 61/84/254 72/96/255
f 72/96/255 61/84/254 62/85/256
s 20
f 72/96/257 62/85/258 63/97/259
f 63/97/259 62/85/258 53/86/260
s 21
f 73/98/261 63/87/262 74/99/263
f 74/99/263 63/87/262 64/88/264
s 22
f 74/99/265 64/88/266 75/100/267
f 75/100/267 64/88/266 65/89/268
s 23
f 75/100/269 65/89/270 76/101/271
f 76/101/271 65/89/270 66/90/272
s 24
f 76/101/273 66/90/274 77/102/275
f 77/102/275 66/90/274 67/91/276
s 25
f 77/102/277 67/91/278 78/103/279
f 78/103/279 67/91/278 68/92/280
s 26
f 78/103/281 68/92/282 79/104/283
f 79/104/283 68/92/282 69/93/284
s 27
f 79/104/285 69/93/286 80/105/287
f 80/105/287 69/93/286 70/94/288
s 28
f 80/105/289 70/94/290 81/106/291
f 81/106/291 70/94/290 71/95/292
s 29
f 81/106/293 71/95/294 82/107/295
f 82/107/295 71/95/294 72/96/296
s 30
f 82/107/297 72/96/298 73/108/299
f 73/108/299 72/96/298 63/97/300
s off
f 44/66/301 43/65/302 83/109/303
f 45/67/304 44/66/305 83/110/306
f 46/68/307 45/67/308 83/111/309
f 47/69/310 46/68/311 83/112/312
f 48/70/313 47/69/314 83/113/315
f 49/71/316 48/70/317 83/114/318
f 50/72/319 49/71/320 83/115/321
f 51/73/322 50/72/323 83/116/324
f 52/74/325 51/73/326 83/117/327
f 43/75/328 52/74/329 83/118/330
f 73/98/331 74/99/332 84/119/333
f 74/99/334 75/100/335 84/120/336
f 75/100/337 76/101/338 84/121/339
f 76/101/340 77/102/341 84/122/342
f 77/102/343 78/103/344 84/123/345
f 78/103/346 79/104/347 84/124/348
f 79/104/349 80/105/350 84/125/351
f 80/105/352 81/106/353 84/126/354
f 81/106/355 82/107/356 84/127/357
f 82/107/358 73/108/359 84/128/360
