# This file uses centimeters as units for non-parametric coordinates.

mtllib model.mtl
g default
v 0.237764 1.000000 0.077254
v 0.237764 -1.000000 0.077254
v 0.202254 -1.000000 0.146946
v 0.202254 1.000000 0.146946
v 0.146946 -1.000000 0.202254
v 0.146946 1.000000 0.202254
v 0.077254 -1.000000 0.237764
v 0.077254 1.000000 0.237764
v -0.000000 -1.000000 0.250000
v -0.000000 1.000000 0.250000
v -0.077254 -1.000000 0.237764
v -0.077254 1.000000 0.237764
v -0.146946 -1.000000 0.202254
v -0.146946 1.000000 0.202254
v -0.202254 -1.000000 0.146946
v -0.202254 1.000000 0.146946
v -0.237764 -1.000000 0.077254
v -0.237764 1.000000 0.077254
v -0.250000 -1.000000 0.000000
v -0.250000 1.000000 0.000000
v -0.237764 -1.000000 -0.077254
v -0.237764 1.000000 -0.077254
v -0.202254 -1.000000 -0.146946
v -0.202254 1.000000 -0.146946
v -0.146946 -1.000000 -0.202254
v -0.146946 1.000000 -0.202254
v -0.077254 -1.000000 -0.237764
v -0.077254 1.000000 -0.237764
v 0.000000 -1.000000 -0.250000
v 0.000000 1.000000 -0.250000
v 0.077254 -1.000000 -0.237764
v 0.077254 1.000000 -0.237764
v 0.146946 -1.000000 -0.202254
v 0.146946 1.000000 -0.202254
v 0.202254 -1.000000 -0.146946
v 0.202254 1.000000 -0.146946
v 0.237764 -1.000000 -0.077254
v 0.237764 1.000000 -0.077254
v 0.250000 -1.000000 0.000000
v 0.250000 1.000000 0.000000
v 0.500000 1.000000 0.000000
v 0.475529 1.000000 -0.154509
v 0.475528 1.000000 0.154509
v 0.404509 1.000000 0.293893
v 0.293893 1.000000 0.404509
v 0.154508 1.000000 0.475528
v -0.000000 1.000000 0.500000
v -0.154509 1.000000 0.475528
v -0.293893 1.000000 0.404509
v -0.404509 1.000000 0.293893
v -0.475528 1.000000 0.154509
v -0.500000 1.000000 0.000000
v -0.475528 1.000000 -0.154509
v -0.404509 1.000000 -0.293893
v -0.293893 1.000000 -0.404509
v -0.154509 1.000000 -0.475528
v 0.000000 1.000000 -0.500000
v 0.154509 1.000000 -0.475529
v 0.293893 1.000000 -0.404509
v 0.404509 1.000000 -0.293893
v 0.475529 -1.000000 -0.154509
v 0.500000 -1.000000 0.000000
v 0.475528 -1.000000 0.154509
v 0.404509 -1.000000 0.293893
v 0.293893 -1.000000 0.404509
v 0.154508 -1.000000 0.475528
v -0.000000 -1.000000 0.500000
v -0.154509 -1.000000 0.475528
v -0.293893 -1.000000 0.404509
v -0.404509 -1.000000 0.293893
v -0.475528 -1.000000 0.154509
v -0.500000 -1.000000 0.000000
v -0.475528 -1.000000 -0.154509
v -0.404509 -1.000000 -0.293893
v -0.293893 -1.000000 -0.404509
v -0.154509 -1.000000 -0.475528
v 0.000000 -1.000000 -0.500000
v 0.154509 -1.000000 -0.475529
v 0.293893 -1.000000 -0.404509
v 0.404509 -1.000000 -0.293893
vt 0.648603 0.107966
vt 0.626409 0.064408
vt 0.591842 0.029841
vt 0.548284 0.007647
vt 0.500000 -0.000000
vt 0.451716 0.007647
vt 0.408159 0.029841
vt 0.373591 0.064409
vt 0.351397 0.107966
vt 0.343750 0.156250
vt 0.351397 0.204534
vt 0.373591 0.248091
vt 0.408159 0.282659
vt 0.451716 0.304853
vt 0.500000 0.312500
vt 0.548284 0.304853
vt 0.591841 0.282659
vt 0.626409 0.248091
vt 0.648603 0.204534
vt 0.656250 0.156250
vt 0.375000 0.312500
vt 0.387500 0.312500
vt 0.400000 0.312500
vt 0.412500 0.312500
vt 0.425000 0.312500
vt 0.437500 0.312500
vt 0.450000 0.312500
vt 0.462500 0.312500
vt 0.475000 0.312500
vt 0.487500 0.312500
vt 0.500000 0.312500
vt 0.512500 0.312500
vt 0.525000 0.312500
vt 0.537500 0.312500
vt 0.550000 0.312500
vt 0.562500 0.312500
vt 0.575000 0.312500
vt 0.587500 0.312500
vt 0.600000 0.312500
vt 0.612500 0.312500
vt 0.625000 0.312500
vt 0.375000 0.688440
vt 0.387500 0.688440
vt 0.400000 0.688440
vt 0.412500 0.688440
vt 0.425000 0.688440
vt 0.437500 0.688440
vt 0.450000 0.688440
vt 0.462500 0.688440
vt 0.475000 0.688440
vt 0.487500 0.688440
vt 0.500000 0.688440
vt 0.512500 0.688440
vt 0.525000 0.688440
vt 0.537500 0.688440
vt 0.550000 0.688440
vt 0.562500 0.688440
vt 0.575000 0.688440
vt 0.587500 0.688440
vt 0.600000 0.688440
vt 0.612500 0.688440
vt 0.625000 0.688440
vt 0.648603 0.795466
vt 0.626409 0.751908
vt 0.591842 0.717341
vt 0.548284 0.695147
vt 0.500000 0.687500
vt 0.451716 0.695147
vt 0.408159 0.717341
vt 0.373591 0.751909
vt 0.351397 0.795466
vt 0.343750 0.843750
vt 0.351397 0.892034
vt 0.373591 0.935591
vt 0.408159 0.970159
vt 0.451716 0.992353
vt 0.500000 1.000000
vt 0.548284 0.992353
vt 0.591841 0.970159
vt 0.626409 0.935591
vt 0.648603 0.892034
vt 0.656250 0.843750
vt 0.587500 0.625783
vt 0.587500 0.375157
vt 0.600000 0.375157
vt 0.600000 0.625783
vt 0.575000 0.625783
vt 0.575000 0.375157
vt 0.587500 0.375157
vt 0.587500 0.625783
vt 0.562500 0.625783
vt 0.562500 0.375157
vt 0.575000 0.375157
vt 0.575000 0.625783
vt 0.550000 0.625783
vt 0.550000 0.375157
vt 0.562500 0.375157
vt 0.562500 0.625783
vt 0.537500 0.625783
vt 0.537500 0.375157
vt 0.550000 0.375157
vt 0.550000 0.625783
vt 0.525000 0.625783
vt 0.525000 0.375157
vt 0.537500 0.375157
vt 0.537500 0.625783
vt 0.512500 0.625783
vt 0.512500 0.375157
vt 0.525000 0.375157
vt 0.525000 0.625783
vt 0.500000 0.625783
vt 0.500000 0.375157
vt 0.512500 0.375157
vt 0.512500 0.625783
vt 0.487500 0.625783
vt 0.487500 0.375157
vt 0.500000 0.375157
vt 0.500000 0.625783
vt 0.475000 0.625783
vt 0.475000 0.375157
vt 0.487500 0.375157
vt 0.487500 0.625783
vt 0.462500 0.625783
vt 0.462500 0.375157
vt 0.475000 0.375157
vt 0.475000 0.625783
vt 0.450000 0.625783
vt 0.450000 0.375157
vt 0.462500 0.375157
vt 0.462500 0.625783
vt 0.437500 0.625783
vt 0.437500 0.375157
vt 0.450000 0.375157
vt 0.450000 0.625783
vt 0.425000 0.625783
vt 0.425000 0.375157
vt 0.437500 0.375157
vt 0.437500 0.625783
vt 0.412500 0.625783
vt 0.412500 0.375157
vt 0.425000 0.375157
vt 0.425000 0.625783
vt 0.400000 0.625783
vt 0.400000 0.375157
vt 0.412500 0.375157
vt 0.412500 0.625783
vt 0.387500 0.625783
vt 0.387500 0.375157
vt 0.400000 0.375157
vt 0.400000 0.625783
vt 0.387500 0.375157
vt 0.387500 0.625783
vt 0.375000 0.625783
vt 0.375000 0.375157
vt 0.612500 0.625783
vt 0.612500 0.375157
vt 0.625000 0.375157
vt 0.625000 0.625783
vt 0.600000 0.625783
vt 0.600000 0.375157
vt 0.612500 0.375157
vt 0.612500 0.625783
vt 0.578125 0.840625
vt 0.574301 0.864767
vt 0.574301 0.816483
vt 0.578125 0.840625
vt 0.563204 0.794704
vt 0.574301 0.816483
vt 0.545921 0.777421
vt 0.563205 0.794704
vt 0.524142 0.766324
vt 0.545921 0.777420
vt 0.500000 0.762500
vt 0.524142 0.766324
vt 0.475858 0.766324
vt 0.500000 0.762500
vt 0.454079 0.777420
vt 0.475858 0.766324
vt 0.436796 0.794704
vt 0.454079 0.777421
vt 0.425699 0.816483
vt 0.436796 0.794704
vt 0.421875 0.840625
vt 0.425699 0.816483
vt 0.425699 0.864767
vt 0.421875 0.840625
vt 0.436796 0.886546
vt 0.425699 0.864767
vt 0.454079 0.903829
vt 0.436796 0.886546
vt 0.475858 0.914926
vt 0.454079 0.903829
vt 0.500000 0.918750
vt 0.475858 0.914926
vt 0.524142 0.914926
vt 0.500000 0.918750
vt 0.545921 0.903829
vt 0.524142 0.914926
vt 0.563204 0.886546
vt 0.545921 0.903829
vt 0.574301 0.864767
vt 0.563205 0.886546
vt 0.574301 0.128983
vt 0.578125 0.153125
vt 0.578125 0.153125
vt 0.574301 0.177267
vt 0.574301 0.177267
vt 0.563204 0.199046
vt 0.563204 0.199046
vt 0.545921 0.216329
vt 0.545921 0.216329
vt 0.524142 0.227426
vt 0.524142 0.227426
vt 0.500000 0.231250
vt 0.500000 0.231250
vt 0.475858 0.227426
vt 0.475858 0.227426
vt 0.454079 0.216329
vt 0.454079 0.216329
vt 0.436796 0.199046
vt 0.436796 0.199046
vt 0.425699 0.177267
vt 0.425699 0.177267
vt 0.421875 0.153125
vt 0.421875 0.153125
vt 0.425699 0.128983
vt 0.425699 0.128983
vt 0.436796 0.107204
vt 0.436796 0.107204
vt 0.454079 0.089921
vt 0.454079 0.089921
vt 0.475858 0.078824
vt 0.475858 0.078824
vt 0.500000 0.075000
vt 0.500000 0.075000
vt 0.524142 0.078824
vt 0.524142 0.078824
vt 0.545921 0.089921
vt 0.545921 0.089921
vt 0.563204 0.107204
vt 0.563205 0.107204
vt 0.574301 0.128983
vn -0.951057 -0.000000 -0.309017
vn -0.951057 -0.000000 -0.309017
vn -0.809017 -0.000000 -0.587785
vn -0.809017 -0.000000 -0.587785
vn -0.587785 -0.000000 -0.809017
vn -0.587785 -0.000000 -0.809017
vn -0.309017 -0.000000 -0.951057
vn -0.309017 -0.000000 -0.951057
vn -0.000000 -0.000000 -1.000000
vn -0.000000 -0.000000 -1.000000
vn 0.309017 0.000000 -0.951057
vn 0.309017 0.000000 -0.951057
vn 0.587785 0.000000 -0.809017
vn 0.587785 0.000000 -0.809017
vn 0.809017 -0.000000 -0.587785
vn 0.809017 -0.000000 -0.587785
vn 0.951057 -0.000000 -0.309017
vn 0.951057 -0.000000 -0.309017
vn 1.000000 -0.000000 -0.000000
vn 1.000000 -0.000000 -0.000000
vn 0.951057 0.000000 0.309017
vn 0.951057 0.000000 0.309017
vn 0.809017 0.000000 0.587785
vn 0.809017 0.000000 0.587785
vn 0.587785 -0.000000 0.809017
vn 0.587785 -0.000000 0.809017
vn 0.309017 -0.000000 0.951056
vn 0.309017 -0.000000 0.951056
vn 0.000000 -0.000000 1.000000
vn 0.000000 -0.000000 1.000000
vn -0.309017 0.000000 0.951057
vn -0.309017 0.000000 0.951057
vn -0.587785 0.000000 0.809017
vn -0.587785 0.000000 0.809017
vn -0.809017 0.000000 0.587785
vn -0.809017 0.000000 0.587785
vn -0.951057 0.000000 0.309016
vn -0.951057 0.000000 0.309016
vn -1.000000 -0.000000 -0.000001
vn -1.000000 -0.000000 -0.000001
vn 0.000000 1.000000 -0.000000
vn 0.000000 1.000000 -0.000000
vn 0.000000 1.000000 -0.000000
vn 0.000000 1.000000 -0.000000
vn 0.000000 1.000000 0.000000
vn 0.000000 1.000000 0.000000
vn 0.000000 1.000000 0.000000
vn 0.000000 1.000000 0.000000
vn 0.000000 1.000000 0.000000
vn 0.000000 1.000000 0.000000
vn 0.000000 1.000000 0.000000
vn 0.000000 1.000000 0.000000
vn 0.000000 1.000000 0.000000
vn 0.000000 1.000000 0.000000
vn 0.000000 1.000000 0.000000
vn 0.000000 1.000000 0.000000
vn 0.000000 1.000000 0.000000
vn 0.000000 1.000000 0.000000
vn 0.000000 1.000000 0.000000
vn 0.000000 1.000000 0.000000
vn 0.000000 1.000000 0.000000
vn 0.000000 1.000000 0.000000
vn 0.000000 1.000000 0.000000
vn 0.000000 1.000000 0.000000
vn 0.000000 1.000000 0.000000
vn 0.000000 1.000000 0.000000
vn 0.000000 1.000000 0.000000
vn 0.000000 1.000000 0.000000
vn 0.000000 1.000000 0.000000
vn 0.000000 1.000000 0.000000
vn 0.000000 1.000000 0.000000
vn 0.000000 1.000000 0.000000
vn 0.000000 1.000000 0.000000
vn 0.000000 1.000000 0.000000
vn 0.000000 1.000000 0.000000
vn 0.000000 1.000000 0.000000
vn 0.000000 1.000000 0.000000
vn 0.000000 1.000000 0.000000
vn 0.000000 1.000000 0.000000
vn 0.000000 1.000000 0.000000
vn 0.000000 -1.000000 0.000000
vn 0.000000 -1.000000 0.000000
vn 0.000000 -1.000000 0.000000
vn 0.000000 -1.000000 0.000000
vn 0.000000 -1.000000 -0.000000
vn 0.000000 -1.000000 -0.000000
vn 0.000000 -1.000000 -0.000000
vn 0.000000 -1.000000 -0.000000
vn 0.000000 -1.000000 0.000000
vn 0.000000 -1.000000 0.000000
vn 0.000000 -1.000000 0.000000
vn 0.000000 -1.000000 0.000000
vn 0.000000 -1.000000 0.000000
vn 0.000000 -1.000000 0.000000
vn 0.000000 -1.000000 0.000000
vn 0.000000 -1.000000 0.000000
vn 0.000000 -1.000000 0.000000
vn 0.000000 -1.000000 0.000000
vn 0.000000 -1.000000 0.000000
vn 0.000000 -1.000000 0.000000
vn 0.000000 -1.000000 0.000000
vn 0.000000 -1.000000 0.000000
vn 0.000000 -1.000000 0.000000
vn 0.000000 -1.000000 0.000000
vn 0.000000 -1.000000 0.000000
vn 0.000000 -1.000000 0.000000
vn 0.000000 -1.000000 0.000000
vn 0.000000 -1.000000 0.000000
vn 0.000000 -1.000000 0.000000
vn 0.000000 -1.000000 0.000000
vn 0.000000 -1.000000 0.000000
vn 0.000000 -1.000000 0.000000
vn 0.000000 -1.000000 0.000000
vn 0.000000 -1.000000 0.000000
vn 0.000000 -1.000000 0.000000
vn 0.000000 -1.000000 0.000000
vn 0.000000 -1.000000 0.000000
vn 0.000000 -1.000000 0.000000
vn 0.000000 -1.000000 0.000000
vn 0.000000 -1.000000 0.000000
vn 1.000000 0.000000 0.000001
vn 0.951057 0.000000 -0.309016
vn 0.951057 0.000000 -0.309016
vn 1.000000 0.000000 0.000001
vn 0.951057 0.000000 0.309017
vn 0.951057 0.000000 0.309017
vn 0.809017 0.000000 0.587785
vn 0.809017 0.000000 0.587785
vn 0.587785 0.000000 0.809017
vn 0.587785 0.000000 0.809017
vn 0.309017 0.000000 0.951057
vn 0.309017 0.000000 0.951057
vn 0.000000 0.000000 1.000000
vn 0.000000 0.000000 1.000000
vn -0.309017 0.000000 0.951057
vn -0.309017 0.000000 0.951057
vn -0.587785 0.000000 0.809017
vn -0.587785 0.000000 0.809017
vn -0.809017 0.000000 0.587785
vn -0.809017 0.000000 0.587785
vn -0.951057 0.000000 0.309017
vn -0.951057 0.000000 0.309017
vn -1.000000 0.000000 0.000000
vn -1.000000 0.000000 0.000000
vn -0.951057 0.000000 -0.309017
vn -0.951057 0.000000 -0.309017
vn -0.809017 0.000000 -0.587785
vn -0.809017 0.000000 -0.587785
vn -0.587785 0.000000 -0.809017
vn -0.587785 0.000000 -0.809017
vn -0.309017 0.000000 -0.951056
vn -0.309017 0.000000 -0.951056
vn -0.000000 0.000000 -1.000000
vn -0.000000 0.000000 -1.000000
vn 0.309017 0.000000 -0.951057
vn 0.309017 0.000000 -0.951057
vn 0.587785 0.000000 -0.809017
vn 0.587785 0.000000 -0.809017
vn 0.809017 0.000000 -0.587785
vn 0.809017 0.000000 -0.587785
s 1
g polySurface1
usemtl initialShadingGroup
f 1/86/1 2/85/2 3/84/3 4/83/4
f 4/90/4 3/89/3 5/88/5 6/87/6
f 6/94/6 5/93/5 7/92/7 8/91/8
f 8/98/8 7/97/7 9/96/9 10/95/10
f 10/102/10 9/101/9 11/100/11 12/99/12
f 12/106/12 11/105/11 13/104/13 14/103/14
f 14/110/14 13/109/13 15/108/15 16/107/16
f 16/114/16 15/113/15 17/112/17 18/111/18
f 18/118/18 17/117/17 19/116/19 20/115/20
f 20/122/20 19/121/19 21/120/21 22/119/22
f 22/126/22 21/125/21 23/124/23 24/123/24
f 24/130/24 23/129/23 25/128/25 26/127/26
f 26/134/26 25/133/25 27/132/27 28/131/28
f 28/138/28 27/137/27 29/136/29 30/135/30
f 30/142/30 29/141/29 31/140/31 32/139/32
f 32/146/32 31/145/31 33/144/33 34/143/34
f 34/150/34 33/149/33 35/148/35 36/147/36
f 37/154/37 38/153/38 36/152/36 35/151/35
f 38/158/38 37/157/37 39/156/39 40/155/40
f 40/162/40 39/161/39 2/160/2 1/159/1
s 2
f 38/164/41 40/163/42 41/82/43 42/81/44
f 40/166/42 1/165/45 43/63/46 41/82/43
f 1/168/45 4/167/47 44/64/48 43/63/46
f 4/170/47 6/169/49 45/65/50 44/64/48
f 6/172/49 8/171/51 46/66/52 45/65/50
f 8/174/51 10/173/53 47/67/54 46/66/52
f 10/176/53 12/175/55 48/68/56 47/67/54
f 12/178/55 14/177/57 49/69/58 48/68/56
f 14/180/57 16/179/59 50/70/60 49/69/58
f 16/182/59 18/181/61 51/71/62 50/70/60
f 18/184/61 20/183/63 52/72/64 51/71/62
f 20/186/63 22/185/65 53/73/66 52/72/64
f 22/188/65 24/187/67 54/74/68 53/73/66
f 24/190/67 26/189/69 55/75/70 54/74/68
f 26/192/69 28/191/71 56/76/72 55/75/70
f 28/194/71 30/193/73 57/77/74 56/76/72
f 30/196/73 32/195/75 58/78/76 57/77/74
f 32/198/75 34/197/77 59/79/78 58/78/76
f 34/200/77 36/199/79 60/80/80 59/79/78
f 36/202/79 38/201/41 42/81/44 60/80/80
s 3
f 39/204/81 37/203/82 61/1/83 62/20/84
f 2/206/85 39/205/81 62/20/84 63/19/86
f 3/208/87 2/207/85 63/19/86 64/18/88
f 5/210/89 3/209/87 64/18/88 65/17/90
f 7/212/91 5/211/89 65/17/90 66/16/92
f 9/214/93 7/213/91 66/16/92 67/15/94
f 11/216/95 9/215/93 67/15/94 68/14/96
f 13/218/97 11/217/95 68/14/96 69/13/98
f 15/220/99 13/219/97 69/13/98 70/12/100
f 17/222/101 15/221/99 70/12/100 71/11/102
f 19/224/103 17/223/101 71/11/102 72/10/104
f 21/226/105 19/225/103 72/10/104 73/9/106
f 23/228/107 21/227/105 73/9/106 74/8/108
f 25/230/109 23/229/107 74/8/108 75/7/110
f 27/232/111 25/231/109 75/7/110 76/6/112
f 29/234/113 27/233/111 76/6/112 77/5/114
f 31/236/115 29/235/113 77/5/114 78/4/116
f 33/238/117 31/237/115 78/4/116 79/3/118
f 35/240/119 33/239/117 79/3/118 80/2/120
f 37/242/82 35/241/119 80/2/120 61/1/83
s 4
f 62/40/121 61/41/122 42/62/123 41/61/124
f 63/39/125 62/40/121 41/61/124 43/60/126
f 64/38/127 63/39/125 43/60/126 44/59/128
f 65/37/129 64/38/127 44/59/128 45/58/130
f 66/36/131 65/37/129 45/58/130 46/57/132
f 67/35/133 66/36/131 46/57/132 47/56/134
f 68/34/135 67/35/133 47/56/134 48/55/136
f 69/33/137 68/34/135 48/55/136 49/54/138
f 70/32/139 69/33/137 49/54/138 50/53/140
f 71/31/141 70/32/139 50/53/140 51/52/142
f 72/30/143 71/31/141 51/52/142 52/51/144
f 73/29/145 72/30/143 52/51/144 53/50/146
f 74/28/147 73/29/145 53/50/146 54/49/148
f 75/27/149 74/28/147 54/49/148 55/48/150
f 76/26/151 75/27/149 55/48/150 56/47/152
f 77/25/153 76/26/151 56/47/152 57/46/154
f 78/24/155 77/25/153 57/46/154 58/45/156
f 79/23/157 78/24/155 58/45/156 59/44/158
f 80/22/159 79/23/157 59/44/158 60/43/160
f 61/21/122 80/22/159 60/43/160 42/42/123
